<?xml version="1.0" encoding="UTF-8"?>
<svg xmlns="http://www.w3.org/2000/svg" width="233" height="60" viewBox="0 0 233 60" fill="none">
  <path d="M66.7362 36.7706C64.7458 36.7706 62.9461 36.4344 61.3371 35.7637C59.7263 35.0913 58.3533 34.1699 57.2165 32.9977C56.0797 31.8255 55.2116 30.4898 54.6123 28.9905C54.013 27.4911 53.7115 25.881 53.7115 24.1636C53.7115 21.8519 54.24 19.7183 55.2988 17.7647C56.3557 15.811 57.8557 14.2481 59.7989 13.0777C61.7421 11.9073 64.0684 11.3203 66.7852 11.3203C69.502 11.3203 71.7739 11.9073 73.7007 13.0813C75.6257 14.2553 77.1112 15.7965 78.1536 17.7065C79.196 19.6165 79.7172 21.6974 79.7172 23.9491C79.7172 24.3562 79.7009 24.7397 79.67 25.0995C79.6391 25.4593 79.6064 25.7647 79.5756 26.0154H60.44C60.5344 27.313 60.8903 28.418 61.506 29.3285C62.1216 30.239 62.9098 30.9423 63.8741 31.4366C64.8366 31.9309 65.8554 32.1781 66.9287 32.1781C68.2235 32.1781 69.4312 31.8692 70.5517 31.2531C71.6722 30.637 72.4385 29.8065 72.849 28.7651L78.248 30.2826C77.6796 31.5475 76.8424 32.6688 75.7383 33.6483C74.6323 34.6279 73.3229 35.3948 71.8066 35.9473C70.2902 36.4998 68.6012 36.776 66.738 36.776L66.7362 36.7706ZM60.2475 22.03H73.2249C73.0978 20.7942 72.7436 19.7219 72.1589 18.8115C71.5741 17.901 70.8095 17.1904 69.8616 16.6815C68.9136 16.1727 67.8567 15.9164 66.689 15.9164C65.5212 15.9164 64.517 16.1708 63.5872 16.6815C62.6555 17.1904 61.8982 17.901 61.3135 18.8115C60.7287 19.7219 60.3728 20.796 60.2475 22.03Z" fill="aliceblue"></path>
  <path d="M120.616 36.2961H114.269V22.5623C114.269 20.6014 113.93 19.1675 113.25 18.2643C112.571 17.3611 111.632 16.9104 110.432 16.9104C109.168 16.9104 107.984 17.3865 106.88 18.3352C105.774 19.2856 104.986 20.5069 104.512 22.0026V36.2961H98.1174V22.5623C98.1174 20.6014 97.785 19.1675 97.1222 18.2643C96.4593 17.3611 95.5277 16.9104 94.3273 16.9104C93.1269 16.9104 91.912 17.3738 90.7751 18.2988C89.6383 19.2239 88.8338 20.4433 88.3598 21.9553V36.2961H82.0599V11.6964H87.7914V16.2852C88.7393 14.6914 90.0087 13.4665 91.605 12.6069C93.1995 11.7473 95.0065 11.3184 97.0277 11.3184C99.049 11.3184 100.682 11.8181 101.835 12.8177C102.988 13.8172 103.722 15.0512 104.038 16.5196C105.047 14.8331 106.335 13.5446 107.899 12.6541C109.462 11.7636 111.238 11.3184 113.227 11.3184C114.743 11.3184 115.982 11.5928 116.944 12.1398C117.907 12.6868 118.657 13.421 119.194 14.3424C119.732 15.2638 120.102 16.3034 120.308 17.4592C120.513 18.615 120.616 19.7709 120.616 20.9267V36.2979V36.2961Z" fill="aliceblue"></path>
  <path d="M137.478 36.7705C135.457 36.7705 133.657 36.2689 132.079 35.2639C130.499 34.2608 129.253 32.9904 128.338 31.453V46.3916H124.17V11.6965H127.864V16.3507C128.843 14.846 130.121 13.6301 131.701 12.7051C133.279 11.7801 135.001 11.3167 136.864 11.3167C138.57 11.3167 140.133 11.6619 141.553 12.3525C142.973 13.0431 144.207 13.9827 145.247 15.1749C146.29 16.3671 147.101 17.7228 147.686 19.244C148.269 20.7651 148.563 22.3571 148.563 24.02C148.563 26.3407 148.097 28.4743 147.165 30.4189C146.233 32.3634 144.931 33.9082 143.257 35.0531C141.582 36.1981 139.657 36.7705 137.478 36.7705ZM136.2 33.1685C137.431 33.1685 138.544 32.9105 139.539 32.3943C140.535 31.8782 141.386 31.1913 142.096 30.3298C142.806 29.4702 143.351 28.4925 143.731 27.3984C144.11 26.3044 144.299 25.1776 144.299 24.02C144.299 22.8005 144.087 21.6429 143.66 20.5488C143.233 19.4548 142.634 18.4843 141.86 17.641C141.087 16.7978 140.186 16.1326 139.16 15.6474C138.134 15.164 137.021 14.9205 135.82 14.9205C135.063 14.9205 134.28 15.0622 133.476 15.3421C132.671 15.6238 131.905 16.0218 131.178 16.5361C130.452 17.0522 129.836 17.6374 129.331 18.2917C128.827 18.9477 128.494 19.6492 128.336 20.398V27.4075C128.81 28.4689 129.44 29.4375 130.23 30.3117C131.019 31.1858 131.936 31.88 132.978 32.3962C134.02 32.9123 135.094 33.1685 136.198 33.1685H136.2Z" fill="aliceblue"></path>
  <path d="M162.402 36.7706C160.538 36.7706 158.849 36.4325 157.333 35.7583C155.817 35.0841 154.507 34.159 153.401 32.9832C152.295 31.8074 151.444 30.4516 150.844 28.9141C150.245 27.3767 149.943 25.7628 149.943 24.0691C149.943 22.3753 150.243 20.7142 150.844 19.1767C151.444 17.6393 152.297 16.2835 153.401 15.1077C154.505 13.9319 155.824 13.0068 157.357 12.3326C158.887 11.6583 160.569 11.3203 162.402 11.3203C164.234 11.3203 165.954 11.6583 167.47 12.3326C168.986 13.0068 170.303 13.9319 171.425 15.1077C172.546 16.2835 173.407 17.6411 174.006 19.1767C174.605 20.7142 174.907 22.3444 174.907 24.0691C174.907 25.7937 174.607 27.3785 174.006 28.9141C173.407 30.4516 172.553 31.8074 171.449 32.9832C170.343 34.159 169.025 35.0859 167.494 35.7583C165.961 36.4325 164.265 36.7706 162.402 36.7706ZM154.208 24.1145C154.208 25.8028 154.578 27.3367 155.321 28.7124C156.062 30.0881 157.05 31.1749 158.281 31.9727C159.512 32.7706 160.885 33.1686 162.402 33.1686C163.918 33.1686 165.298 32.7615 166.546 31.9491C167.793 31.1368 168.787 30.0336 169.529 28.6415C170.27 27.2494 170.643 25.7101 170.643 24.02C170.643 22.3299 170.272 20.7996 169.529 19.4239C168.787 18.0482 167.793 16.9541 166.546 16.1399C165.298 15.3276 163.916 14.9205 162.402 14.9205C160.887 14.9205 159.512 15.3349 158.281 16.1636C157.05 16.9923 156.062 18.0936 155.321 19.4712C154.578 20.8469 154.208 22.3953 154.208 24.1145Z" fill="aliceblue"></path>
  <path d="M207.648 11.6965H210.821L200.211 36.2963H197.417L192.254 24.0673L187.138 36.2963H184.343L173.734 11.6965H176.859L185.857 32.9905L190.405 21.8955L186.237 11.7438H189.126L192.252 19.722L195.424 11.7438H198.266L194.146 21.8955L198.693 32.9905L207.644 11.6965H207.648Z" fill="aliceblue"></path>
  <path d="M210.977 29.234C210.977 27.6965 211.418 26.3698 212.303 25.254C213.187 24.1399 214.411 23.2767 215.973 22.6642C217.536 22.0518 219.343 21.7465 221.395 21.7465C222.596 21.7465 223.842 21.841 225.138 22.0318C226.433 22.2208 227.585 22.5061 228.596 22.8841V20.8051C228.596 18.7333 227.98 17.0831 226.749 15.8583C225.518 14.6334 223.813 14.0209 221.633 14.0209C220.308 14.0209 219.006 14.2662 217.725 14.7551C216.447 15.2458 215.112 15.9637 213.723 16.9123L212.491 14.637C214.102 13.532 215.68 12.7015 217.228 12.149C218.775 11.5966 220.353 11.3203 221.964 11.3203C224.995 11.3203 227.394 12.1836 229.163 13.91C230.93 15.6365 231.816 18.0245 231.816 21.0686V32.4198C231.816 32.8596 231.91 33.1813 232.099 33.3848C232.288 33.5884 232.588 33.7065 233 33.7374V36.2962C232.653 36.3271 232.352 36.3598 232.099 36.3907C231.847 36.4216 231.656 36.4216 231.531 36.3907C230.741 36.3598 230.142 36.1072 229.731 35.6329C229.321 35.1586 229.099 34.6533 229.068 34.1154L229.021 32.3144C227.915 33.7356 226.479 34.8351 224.712 35.6093C222.943 36.3835 221.143 36.7706 219.312 36.7706C217.733 36.7706 216.305 36.4325 215.027 35.7583C213.748 35.0841 212.753 34.1736 212.043 33.0268C211.333 31.8819 210.977 30.617 210.977 29.2358V29.234ZM227.506 31.1113C227.853 30.6733 228.122 30.2499 228.311 29.8428C228.5 29.4357 228.594 29.0759 228.594 28.7615V25.1922C227.521 24.7851 226.408 24.4725 225.255 24.2526C224.101 24.0327 222.941 23.9237 221.773 23.9237C219.467 23.9237 217.605 24.378 216.183 25.2849C214.762 26.1917 214.051 27.4294 214.051 28.9959C214.051 29.9046 214.288 30.7587 214.761 31.5566C215.235 32.3544 215.929 33.0123 216.845 33.5302C217.76 34.0482 218.833 34.3044 220.064 34.3044C221.612 34.3044 223.055 34.0082 224.399 33.4121C225.741 32.8178 226.775 32.0509 227.501 31.1095L227.506 31.1113Z" fill="aliceblue"></path>
  <path d="M60.0423 58.1971C60.0423 58.577 59.9424 58.895 59.7444 59.1549C59.5447 59.4148 59.2777 59.6129 58.9417 59.7473C58.604 59.8818 58.2371 59.9491 57.8394 59.9491H54.5378V53.1104H58.1953C58.5168 53.1104 58.7928 53.1958 59.0271 53.3648C59.2614 53.5356 59.4411 53.7537 59.5665 54.019C59.6918 54.2862 59.7535 54.5624 59.7535 54.8514C59.7535 55.1785 59.67 55.4893 59.5029 55.78C59.3358 56.0726 59.0925 56.2925 58.771 56.4397C59.1615 56.5561 59.472 56.7632 59.699 57.0667C59.926 57.3684 60.0404 57.7446 60.0404 58.1935L60.0423 58.1971ZM55.8654 54.248V55.9727H57.636C57.7831 55.9727 57.9175 55.9382 58.041 55.8673C58.1627 55.7964 58.2607 55.6964 58.3352 55.5692C58.4096 55.4402 58.446 55.2894 58.446 55.1167C58.446 54.9441 58.4115 54.7841 58.3443 54.6587C58.2771 54.5333 58.1863 54.4334 58.0755 54.3607C57.9629 54.2862 57.8358 54.2498 57.6959 54.2498H55.8672L55.8654 54.248ZM58.7038 57.9372C58.7038 57.7646 58.6693 57.6083 58.5985 57.4702C58.5277 57.3321 58.4332 57.2212 58.3152 57.1376C58.1972 57.054 58.061 57.0122 57.9066 57.0122H55.8654V58.8223H57.8376C57.9974 58.8223 58.1445 58.7823 58.2753 58.7024C58.406 58.6224 58.5113 58.5152 58.5876 58.3789C58.6639 58.2444 58.7038 58.0972 58.7038 57.9354V57.9372Z" fill="#F9792F"></path>
  <path d="M64.744 59.9981C64.2046 59.9981 63.7452 59.9073 63.362 59.7237C62.9806 59.5402 62.6719 59.2894 62.4376 58.9677C62.2034 58.646 62.0308 58.2825 61.9219 57.8736C61.8129 57.4666 61.7584 57.0413 61.7584 56.5979V53.1104H63.0769V56.5979C63.0769 56.8814 63.1077 57.1558 63.1677 57.4211C63.2276 57.6865 63.322 57.9263 63.4473 58.139C63.5726 58.3516 63.7415 58.517 63.9522 58.6406C64.1647 58.7623 64.428 58.8241 64.7422 58.8241C65.0563 58.8241 65.3378 58.7623 65.5449 58.6369C65.7537 58.5115 65.9226 58.3425 66.0497 58.1317C66.1787 57.9191 66.2713 57.681 66.3294 57.4139C66.3875 57.1467 66.4166 56.8759 66.4166 56.5997V53.1122H67.735V56.5997C67.735 57.0613 67.6769 57.5011 67.5625 57.9136C67.4463 58.328 67.2701 58.6915 67.0322 59.0022C66.7943 59.313 66.4874 59.5583 66.1078 59.7346C65.7283 59.9109 65.2743 59.9999 64.7404 59.9999L64.744 59.9981Z" fill="#F9792F"></path>
  <path d="M69.8779 59.9491V53.1104H71.2055V59.9491H69.8779Z" fill="#F9792F"></path>
  <path d="M73.3901 59.9491V53.1104H74.7177V58.7841H78.2026V59.9491H73.3901Z" fill="#F9792F"></path>
  <path d="M79.7481 59.9491V53.1104H82.2306C82.9752 53.1104 83.5981 53.263 84.0975 53.5683C84.5987 53.8736 84.9729 54.2844 85.2235 54.8005C85.4741 55.3166 85.5994 55.8909 85.5994 56.5197C85.5994 57.2139 85.4614 57.8173 85.1853 58.3298C84.9093 58.8441 84.5188 59.2421 84.0158 59.5238C83.5128 59.8073 82.9171 59.9472 82.2306 59.9472H79.7481V59.9491ZM84.2628 56.5197C84.2628 56.0763 84.1829 55.6874 84.0212 55.3493C83.8614 55.0131 83.629 54.7496 83.3275 54.5588C83.0261 54.368 82.661 54.2753 82.2306 54.2753H81.0756V58.7823H82.2306C82.6737 58.7823 83.0442 58.6824 83.3421 58.4843C83.6399 58.2862 83.8687 58.0154 84.0249 57.6755C84.1829 57.3357 84.261 56.9504 84.261 56.5197H84.2628Z" fill="#F9792F"></path>
  <path d="M87.479 59.9491V53.1104H88.8065V59.9491H87.479Z" fill="#F9792F"></path>
  <path d="M92.3187 55.5565V59.9491H90.9912V53.1104H92.059L95.5822 57.6174V53.1194H96.9006V59.9491H95.8037L92.3187 55.5565Z" fill="#F9792F"></path>
  <path d="M102 59.9981C101.551 59.9981 101.13 59.9091 100.74 59.7328C100.347 59.5565 100.004 59.3075 99.7046 58.9859C99.4067 58.6642 99.1743 58.2935 99.0072 57.8736C98.8401 57.4538 98.7566 56.9922 98.7566 56.4906C98.7566 56.0218 98.842 55.5801 99.0108 55.1658C99.1815 54.7514 99.4158 54.3861 99.7136 54.0681C100.011 53.7501 100.364 53.5029 100.767 53.3266C101.172 53.1503 101.608 53.0613 102.076 53.0613C102.725 53.0613 103.279 53.1958 103.736 53.4666C104.194 53.7373 104.541 54.099 104.771 54.5551L103.78 55.2875C103.613 54.9477 103.373 54.6878 103.057 54.5079C102.743 54.328 102.403 54.2389 102.036 54.2389C101.748 54.2389 101.482 54.3007 101.243 54.4225C101.001 54.5442 100.796 54.7114 100.622 54.9241C100.449 55.1367 100.317 55.3802 100.228 55.6565C100.139 55.9327 100.093 56.2253 100.093 56.5324C100.093 56.8596 100.142 57.1612 100.242 57.4375C100.342 57.7137 100.484 57.9554 100.665 58.1644C100.847 58.3734 101.061 58.5352 101.304 58.6515C101.548 58.7678 101.818 58.8241 102.113 58.8241C102.465 58.8241 102.799 58.7351 103.113 58.5551C103.427 58.3752 103.723 58.1117 103.999 57.7646V59.084C103.427 59.6946 102.761 59.9981 101.998 59.9981H102ZM103.905 57.4066H102.529V56.4343H105.002V59.9491H103.905V57.4066Z" fill="#F9792F"></path>
  <path d="M117.275 56.4725C117.275 56.049 117.351 55.6365 117.502 55.2348C117.652 54.8332 117.874 54.4697 118.166 54.1408C118.459 53.8137 118.813 53.552 119.231 53.3557C119.648 53.1594 120.119 53.0613 120.645 53.0613C121.274 53.0613 121.818 53.1994 122.276 53.4756C122.736 53.7519 123.073 54.1117 123.291 54.5551L122.282 55.2585C122.165 55.0022 122.015 54.7987 121.829 54.6515C121.642 54.5043 121.443 54.3989 121.228 54.3334C121.014 54.2698 120.807 54.2371 120.607 54.2371C120.273 54.2371 119.982 54.3043 119.735 54.4388C119.488 54.5733 119.283 54.7496 119.12 54.9695C118.956 55.1876 118.833 55.4311 118.749 55.7019C118.666 55.9709 118.624 56.2453 118.624 56.5197C118.624 56.8159 118.671 57.1031 118.767 57.3811C118.864 57.661 119 57.9082 119.176 58.1226C119.352 58.3371 119.565 58.5079 119.812 58.6333C120.059 58.7587 120.329 58.8205 120.625 58.8205C120.831 58.8205 121.043 58.7859 121.261 58.7151C121.479 58.6442 121.68 58.5315 121.867 58.3789C122.053 58.2244 122.205 58.0227 122.32 57.7719L123.398 58.4079C123.257 58.7478 123.035 59.0367 122.73 59.2748C122.425 59.5129 122.085 59.6928 121.709 59.8146C121.334 59.9363 120.959 59.9981 120.589 59.9981C120.1 59.9981 119.657 59.8964 119.256 59.6946C118.855 59.4929 118.508 59.2221 118.212 58.8859C117.916 58.5479 117.687 58.1699 117.524 57.7501C117.36 57.3302 117.278 56.9032 117.278 56.4743L117.275 56.4725Z" fill="#F9792F"></path>
  <path d="M127.886 59.998C127.385 59.998 126.932 59.9017 126.529 59.7091C126.124 59.5164 125.776 59.2547 125.48 58.924C125.184 58.5932 124.957 58.2206 124.797 57.8063C124.637 57.3919 124.555 56.9667 124.555 56.5305C124.555 56.0943 124.641 55.64 124.811 55.2256C124.982 54.8113 125.216 54.4424 125.514 54.1171C125.812 53.7936 126.168 53.5355 126.578 53.3465C126.989 53.1575 127.435 53.063 127.917 53.063C128.398 53.063 128.861 53.1629 129.27 53.361C129.676 53.5609 130.025 53.8263 130.314 54.1607C130.603 54.4951 130.826 54.8676 130.982 55.2783C131.14 55.6891 131.218 56.1125 131.218 56.5505C131.218 56.9885 131.137 57.4319 130.973 57.8463C130.81 58.2606 130.579 58.6296 130.279 58.953C129.982 59.2765 129.627 59.5328 129.221 59.7181C128.814 59.9053 128.369 59.998 127.888 59.998H127.886ZM125.903 56.5305C125.903 56.8267 125.948 57.1121 126.037 57.3883C126.126 57.6645 126.257 57.9099 126.428 58.1243C126.598 58.3388 126.805 58.5096 127.054 58.635C127.301 58.7604 127.583 58.8222 127.897 58.8222C128.211 58.8222 128.509 58.7568 128.754 58.6241C128.999 58.4914 129.204 58.317 129.375 58.0989C129.546 57.8808 129.671 57.6336 129.755 57.3574C129.838 57.0812 129.88 56.8049 129.88 56.5287C129.88 56.2343 129.834 55.9489 129.745 55.6763C129.655 55.4037 129.524 55.1602 129.351 54.9439C129.179 54.7277 128.97 54.5587 128.725 54.4333C128.482 54.3079 128.202 54.2461 127.888 54.2461C127.573 54.2461 127.292 54.3115 127.045 54.4442C126.798 54.575 126.589 54.7495 126.418 54.9639C126.248 55.1784 126.121 55.4237 126.033 55.6963C125.946 55.9689 125.905 56.247 125.905 56.5287L125.903 56.5305Z" fill="#F9792F"></path>
  <path d="M138.631 59.9491V55.4602L136.87 58.8023H136.129L134.376 55.4602V59.9491H133.049V53.1104H134.484L136.496 56.9922L138.526 53.1104H139.95V59.9491H138.631Z" fill="#F9792F"></path>
  <path d="M147.721 59.9491V55.4602L145.959 58.8023H145.218L143.466 55.4602V59.9491H142.138V53.1104H143.573L145.585 56.9922L147.615 53.1104H149.039V59.9491H147.721Z" fill="#F9792F"></path>
  <path d="M154.139 59.9981C153.599 59.9981 153.14 59.9073 152.757 59.7237C152.375 59.5402 152.066 59.2894 151.832 58.9677C151.598 58.646 151.425 58.2825 151.316 57.8736C151.207 57.4666 151.153 57.0413 151.153 56.5979V53.1104H152.471V56.5979C152.471 56.8814 152.502 57.1558 152.562 57.4211C152.622 57.6865 152.717 57.9263 152.842 58.139C152.967 58.3516 153.136 58.517 153.347 58.6406C153.559 58.7623 153.823 58.8241 154.137 58.8241C154.451 58.8241 154.732 58.7623 154.939 58.6369C155.148 58.5115 155.317 58.3425 155.444 58.1317C155.573 57.9191 155.666 57.681 155.724 57.4139C155.782 57.1467 155.811 56.8759 155.811 56.5997V53.1122H157.13V56.5997C157.13 57.0613 157.071 57.5011 156.957 57.9136C156.841 58.328 156.665 58.6915 156.427 59.0022C156.189 59.313 155.882 59.5583 155.502 59.7346C155.123 59.9109 154.669 59.9999 154.135 59.9999L154.139 59.9981Z" fill="#F9792F"></path>
  <path d="M160.589 55.5565V59.9491H159.262V53.1104H160.329L163.852 57.6174V53.1194H165.171V59.9491H164.074L160.589 55.5565Z" fill="#F9792F"></path>
  <path d="M167.37 59.9491V53.1104H168.698V59.9491H167.37Z" fill="#F9792F"></path>
  <path d="M175.942 54.277H173.766V59.9508H172.448V54.277H170.254V53.1121H175.942V54.277Z" fill="#F9792F"></path>
  <path d="M178.675 53.1104L180.358 56.3271L182.071 53.1104H183.506L181.023 57.5611V59.9491H179.705V57.5411L177.24 53.1104H178.675Z" fill="#F9792F"></path>
  <path d="M194.914 59.9491V53.1104H196.242V59.9491H194.914Z" fill="#F9792F"></path>
  <path d="M204.011 59.9491V55.4602L202.249 58.8023H201.508L199.756 55.4602V59.9491H198.428V53.1104H199.863L201.875 56.9922L203.905 53.1104H205.329V59.9491H204.011Z" fill="#F9792F"></path>
  <path d="M207.516 59.9491V53.1104H210.412C210.726 53.1104 211.017 53.174 211.284 53.303C211.549 53.432 211.78 53.6047 211.972 53.8228C212.165 54.0408 212.314 54.2844 212.419 54.5552C212.524 54.8241 212.577 55.1004 212.577 55.3839C212.577 55.7619 212.49 56.1272 212.317 56.4779C212.143 56.8287 211.898 57.1122 211.582 57.3303C211.264 57.5483 210.893 57.6574 210.47 57.6574H208.843V59.9491H207.516ZM208.843 56.4906H210.383C210.55 56.4906 210.697 56.4452 210.826 56.3562C210.955 56.2653 211.055 56.1363 211.129 55.9654C211.204 55.7946 211.24 55.6019 211.24 55.382C211.24 55.144 211.197 54.9441 211.111 54.7805C211.026 54.6169 210.912 54.4915 210.774 54.4043C210.636 54.3171 210.487 54.2753 210.327 54.2753H208.845V56.4906H208.843Z" fill="#F9792F"></path>
  <path d="M215.561 53.1104H216.908L219.42 59.9491H218.052L217.484 58.2444H214.974L214.404 59.9491H213.036L215.559 53.1104H215.561ZM217.175 57.3103L216.234 54.4879L215.29 57.3103H217.175Z" fill="#F9792F"></path>
  <path d="M220.204 56.4725C220.204 56.049 220.279 55.6365 220.431 55.2348C220.582 54.8332 220.804 54.4697 221.096 54.1408C221.388 53.8118 221.742 53.552 222.16 53.3557C222.576 53.1594 223.048 53.0613 223.575 53.0613C224.203 53.0613 224.748 53.1994 225.206 53.4756C225.665 53.7519 226.003 54.1117 226.221 54.5551L225.211 55.2585C225.095 55.0022 224.944 54.7987 224.759 54.6515C224.572 54.5043 224.372 54.3989 224.158 54.3334C223.943 54.2698 223.736 54.2371 223.537 54.2371C223.203 54.2371 222.912 54.3043 222.665 54.4388C222.418 54.5733 222.213 54.7496 222.049 54.9695C221.886 55.1876 221.762 55.4311 221.679 55.7019C221.595 55.9709 221.554 56.2453 221.554 56.5197C221.554 56.8159 221.603 57.1031 221.697 57.3811C221.793 57.661 221.929 57.9082 222.106 58.1226C222.282 58.3371 222.494 58.5079 222.741 58.6333C222.988 58.7587 223.259 58.8205 223.555 58.8205C223.76 58.8205 223.973 58.7859 224.19 58.7151C224.408 58.6442 224.61 58.5315 224.797 58.3789C224.982 58.2244 225.135 58.0227 225.249 57.7719L226.328 58.4079C226.186 58.7478 225.965 59.0367 225.66 59.2748C225.355 59.5129 225.015 59.6928 224.639 59.8146C224.263 59.9363 223.891 59.9981 223.518 59.9981C223.03 59.9981 222.587 59.8964 222.186 59.6946C221.784 59.4929 221.437 59.2221 221.141 58.8859C220.847 58.5479 220.616 58.1699 220.453 57.7501C220.29 57.3302 220.208 56.9032 220.208 56.4743L220.204 56.4725Z" fill="#F9792F"></path>
  <path d="M232.791 54.277H230.616V59.9508H229.297V54.277H227.103V53.1121H232.791V54.277Z" fill="#F9792F"></path>
  <path d="M110.768 57.4593C110.888 57.492 111.011 57.5083 111.133 57.5083C111.376 57.5083 111.614 57.4447 111.83 57.3193C112.154 57.1321 112.386 56.8305 112.482 56.4688C112.578 56.1071 112.529 55.7291 112.342 55.4056C111.956 54.7369 111.098 54.5061 110.43 54.8931C109.762 55.2802 109.531 56.138 109.918 56.8068C110.105 57.1303 110.406 57.3629 110.768 57.4593Z" fill="#F9792F"></path>
  <path d="M188.037 57.4593C188.157 57.492 188.28 57.5083 188.402 57.5083C188.645 57.5083 188.883 57.4447 189.099 57.3193C189.422 57.1321 189.655 56.8305 189.751 56.4688C189.847 56.1071 189.798 55.7291 189.611 55.4056C189.224 54.7369 188.367 54.5061 187.699 54.8931C187.031 55.2802 186.8 56.138 187.187 56.8068C187.374 57.1303 187.675 57.3629 188.037 57.4593Z" fill="#F9792F"></path>
  <path d="M21.3807 29.3558C23.9874 29.3558 26.1005 27.2411 26.1005 24.6325C26.1005 22.0239 23.9874 19.9092 21.3807 19.9092C18.7739 19.9092 16.6608 22.0239 16.6608 24.6325C16.6608 27.2411 18.7739 29.3558 21.3807 29.3558Z" fill="#F9792F"></path>
  <path d="M21.3806 48.7959C23.3093 48.7959 24.8729 47.2313 24.8729 45.3012C24.8729 43.3711 23.3093 41.8064 21.3806 41.8064C19.4519 41.8064 17.8884 43.3711 17.8884 45.3012C17.8884 47.2313 19.4519 48.7959 21.3806 48.7959Z" fill="#FB2D2B"></path>
  <path d="M1.74743 17.3248C2.28498 17.6356 2.88246 17.7937 3.4872 17.7937C3.79048 17.7937 4.09557 17.7537 4.39703 17.6737C5.29779 17.432 6.05145 16.8541 6.51817 16.0454C7.48067 14.3771 6.9068 12.2344 5.23968 11.2712C4.43154 10.8041 3.49083 10.6806 2.59008 10.9223C1.68932 11.164 0.935664 11.7419 0.468942 12.5506C0.00403565 13.3593 -0.121271 14.3007 0.120262 15.2021C0.361795 16.1035 0.939296 16.8578 1.74743 17.3248Z" fill="#F9792F"></path>
  <path d="M38.3624 17.6737C38.6639 17.7537 38.969 17.7937 39.2723 17.7937C39.877 17.7937 40.4745 17.6355 41.012 17.3248C41.8202 16.8577 42.3977 16.1053 42.6392 15.2021C42.8807 14.3007 42.7572 13.3593 42.2905 12.5506C41.328 10.8823 39.1869 10.308 37.5198 11.2712C35.8527 12.2344 35.2788 14.377 36.2413 16.0454C36.708 16.8541 37.4617 17.432 38.3624 17.6737Z" fill="#F8AB55"></path>
  <path d="M15.7019 9.85007L21.3806 6.56429L27.0594 9.85007V18.07H32.7381V6.57156L21.3806 0L10.0231 6.57156V18.07H15.7019V9.85007Z" fill="#F8AB55"></path>
  <path d="M32.7381 18.0701L29.8997 22.9915L37.0113 27.1023L37.0167 33.6666L31.3325 36.9451L24.2209 32.8343L21.3806 37.7557L31.3307 43.5058L42.6973 36.9488L42.6882 23.8184L32.7381 18.0701Z" fill="#FB2D2B"></path>
  <path d="M18.5403 32.8343L11.4287 36.9451L5.74453 33.6666L5.74998 27.1023L12.8616 22.9915L10.0231 18.0701L0.073045 23.8184L0.0639648 36.9488L11.4306 43.5058L21.3806 37.7557L18.5403 32.8343Z" fill="#F9792F"></path>
</svg>
