<svg width="840" height="191" viewBox="0 0 840 191" fill="none" xmlns="http://www.w3.org/2000/svg">
<g clip-path="url(#clip0_505_207)">
<path d="M77.6269 92.9164L83.1792 76.665L71.8871 89.5925H31.3362L11.4734 57.318L30.0883 22.8778H70.0435L91.4858 57.7199L84.7298 73.9789L97.198 57.693L76.1783 18.8045L83.1792 0.00274658L70.4371 15.4178H25.7826L-0.00341797 57.318L24.1609 102.027H68.6556L88.5177 134.302L69.8863 168.773L29.4285 169.342L12.0698 145.114L25.8646 175.552L74.1906 176.231L99.9952 134.302L77.6269 92.9164Z" fill="white"/>
</g>
<path d="M198.983 145.295C217.883 145.295 233.919 135.416 242.223 120.811V95.6114H198.839V105.634H231.055V118.377C224.755 128.257 213.73 135.273 199.555 135.273C177.362 135.273 161.469 118.377 161.469 96.3273C161.469 74.5636 177.076 57.9545 198.983 57.9545C211.869 57.9545 222.035 63.825 229.051 73.5614L237.498 66.975C228.764 54.9477 215.162 47.6455 198.983 47.6455C171.492 47.6455 149.871 68.8364 149.871 96.4705C149.871 123.961 171.348 145.295 198.983 145.295ZM266.148 55.3773C270.587 55.3773 274.31 51.9409 274.31 47.3592C274.31 42.9205 270.587 39.341 266.148 39.341C261.567 39.341 257.844 42.9205 257.844 47.3592C257.844 51.9409 261.567 55.3773 266.148 55.3773ZM260.564 143.72H271.589V73.9909H260.564V143.72ZM370.828 72.4159C360.089 72.4159 351.785 77.4273 346.916 84.4432C343.05 77.1409 335.891 72.4159 325.439 72.4159C316.705 72.4159 309.546 75.7091 304.678 81.2932V73.9909H294.369V143.72H305.394V101.339C305.394 90.3136 312.553 82.5818 323.148 82.5818C333.457 82.5818 339.757 90.3136 339.757 101.339V143.72H350.782V100.336C350.782 90.6 358.085 82.5818 368.68 82.5818C379.132 82.5818 385.146 90.3136 385.146 101.339V143.72H396.171V99.9068C396.171 83.7273 387.15 72.4159 370.828 72.4159ZM454.735 72.4159C444.283 72.4159 434.69 76.8546 429.106 84.1568V36.3342H418.081V143.72H428.39V132.695C433.831 140.57 443.997 145.295 454.879 145.295C474.781 145.295 489.242 129.402 489.242 108.927C489.242 88.3091 474.638 72.4159 454.735 72.4159ZM453.161 135.13C441.133 135.13 428.963 127.255 428.963 108.927C428.963 90.6 440.99 82.5818 453.161 82.5818C467.336 82.5818 477.931 93.6068 477.931 108.784C477.931 123.961 467.479 135.13 453.161 135.13ZM532.173 72.4159C521.005 72.4159 510.41 77.1409 503.823 87.7364L511.126 93.75C516.567 86.7341 522.723 82.5818 531.457 82.5818C541.768 82.5818 548.355 88.4523 548.355 100.193V106.207H526.303C511.126 106.207 501.246 113.939 501.246 125.68C501.246 137.85 511.555 145.295 525.587 145.295C535.896 145.295 544.059 141.43 549.07 134.7V143.72H559.38V100.766C559.38 82.0091 548.068 72.4159 532.173 72.4159ZM527.019 136.132C519.287 136.132 512.557 132.552 512.557 125.107C512.557 118.52 517.855 115.227 527.592 115.227H548.355V116.945C548.355 127.827 538.475 136.132 527.019 136.132ZM578.753 143.72H598.082V36.3342H578.753V143.72ZM644.839 71.2705C632.382 71.2705 622.216 75.9955 613.912 85.875L623.935 97.7591C629.805 91.6023 635.103 88.0227 642.691 88.0227C651.426 88.0227 655.864 92.7477 655.864 100.48V103.63H638.11C621.787 103.63 611.335 111.361 611.335 124.248C611.335 136.275 620.355 145.439 635.819 145.439C644.982 145.439 652.428 142.145 657.439 136.848V143.72H675.194V101.625C675.194 81.4364 662.88 71.2705 644.839 71.2705ZM640.973 131.264C634.96 131.264 630.807 128.4 630.807 123.532C630.807 118.807 634.387 116.373 640.687 116.373H655.864V117.232C655.864 125.536 649.135 131.264 640.973 131.264ZM732.884 71.2705C724.007 71.2705 716.705 74.2773 711.693 79.7182V36.3342H692.364V143.72H710.118V134.986C714.986 141.573 723.148 145.439 732.884 145.439C752.93 145.439 767.248 129.689 767.248 108.355C767.248 87.0205 752.93 71.2705 732.884 71.2705ZM729.305 127.827C720.427 127.827 711.407 121.957 711.407 108.355C711.407 94.8955 720.284 88.7386 729.305 88.7386C739.327 88.7386 747.632 96.1841 747.632 108.211C747.632 120.239 739.47 127.827 729.305 127.827ZM803.89 145.439C819.354 145.439 831.524 137.42 831.524 122.816C831.524 111.791 824.365 106.35 811.622 101.195L804.749 98.3318C799.595 96.1841 797.304 94.7523 797.304 92.0318C797.304 88.5955 800.311 87.0205 804.893 87.0205C810.62 87.0205 816.204 89.4545 820.786 93.75L830.522 81.8659C824.079 74.7068 815.345 71.2705 805.036 71.2705C790.002 71.2705 778.977 78.8591 778.977 92.4614C778.977 103.63 786.279 109.214 798.306 114.082L805.895 117.232C810.19 119.093 813.197 120.382 813.197 123.675C813.197 127.684 809.045 129.545 804.177 129.545C796.588 129.545 790.002 125.823 784.274 119.952L774.538 131.693C780.838 139.998 791.29 145.439 803.89 145.439Z" fill="white"/>
<defs>
<clipPath id="clip0_505_207">
<rect width="100" height="176.227" fill="white"/>
</clipPath>
</defs>
</svg>
