<svg width="443" height="134" viewBox="0 0 443 134" fill="none" xmlns="http://www.w3.org/2000/svg">
<path d="M192.667 84.6667L162.667 44.6667L132.667 4.66667C132.067 3.8 131.067 3.33333 130 3.33333C128.933 3.33333 127.933 3.8 127.333 4.66667L102.667 37.5333C101.333 39.3333 98.6667 39.3333 97.3334 37.5333L72.6667 4.66667C72.0667 3.8 71.0667 3.33333 70 3.33333C68.9334 3.33333 67.9334 3.8 67.3334 4.66667L37.3333 44.6667L7.33335 84.6667C6.46668 85.8667 6.46668 87.4667 7.33335 88.6667L37.3333 128.667C37.9333 129.533 38.9333 130 40 130C41.0667 130 42.0667 129.533 42.6667 128.667L67.3334 95.8C68.6667 94 71.3334 94 72.6667 95.8L97.3334 128.667C97.9334 129.533 98.9334 130 100 130C101.067 130 102.067 129.533 102.667 128.667L127.333 95.8C128.667 94 131.333 94 132.667 95.8L157.333 128.667C157.933 129.533 158.933 130 160 130C161.067 130 162.067 129.533 162.667 128.667L192.667 88.6667C193.533 87.4667 193.533 85.8667 192.667 84.6667ZM132.667 15.8L154.333 44.6667C155.2 45.8667 155.2 47.4667 154.333 48.6667L132.667 77.5333C131.333 79.3333 128.667 79.3333 127.333 77.5333L105.667 48.6667C104.8 47.4667 104.8 45.8667 105.667 44.6667L127.333 15.8C128.667 14 131.333 14 132.667 15.8ZM72.6667 15.8L94.3334 44.6667C95.2 45.8667 95.2 47.4667 94.3334 48.6667L72.6667 77.5333C71.3334 79.3333 68.6667 79.3333 67.3334 77.5333L45.6667 48.6667C44.8 47.4667 44.8 45.8667 45.6667 44.6667L67.3334 15.8C68.6667 14 71.3334 14 72.6667 15.8ZM37.3333 117.533L15.6667 88.6667C14.8 87.4667 14.8 85.8667 15.6667 84.6667L37.3333 55.8C38.6667 54 41.3333 54 42.6667 55.8L64.3334 84.6667C65.2 85.8667 65.2 87.4667 64.3334 88.6667L42.6667 117.533C41.3333 119.333 38.6667 119.333 37.3333 117.533ZM97.3334 117.533L75.6667 88.6667C74.8 87.4667 74.8 85.8667 75.6667 84.6667L97.3334 55.8C98.6667 54 101.333 54 102.667 55.8L124.333 84.6667C125.2 85.8667 125.2 87.4667 124.333 88.6667L102.667 117.533C101.333 119.333 98.6667 119.333 97.3334 117.533ZM157.333 117.533L135.667 88.6667C134.8 87.4667 134.8 85.8667 135.667 84.6667L157.333 55.8C158.667 54 161.333 54 162.667 55.8L184.333 84.6667C185.2 85.8667 185.2 87.4667 184.333 88.6667L162.667 117.533C161.333 119.333 158.667 119.333 157.333 117.533Z" fill="white"/>
<path d="M235.739 37.8182H248.636L265.909 79.9773H266.591L283.864 37.8182H296.761V96H286.648V56.0284H286.108L270.028 95.8295H262.472L246.392 55.9432H245.852V96H235.739V37.8182ZM327.102 96.8523C322.727 96.8523 318.949 95.9432 315.767 94.125C312.604 92.2879 310.17 89.6932 308.466 86.3409C306.761 82.9697 305.909 79.0019 305.909 74.4375C305.909 69.9489 306.761 66.0095 308.466 62.6193C310.189 59.2102 312.595 56.5587 315.682 54.6648C318.769 52.7519 322.396 51.7955 326.562 51.7955C329.252 51.7955 331.79 52.2311 334.176 53.1023C336.581 53.9545 338.703 55.2803 340.54 57.0795C342.396 58.8788 343.854 61.1705 344.915 63.9545C345.975 66.7197 346.506 70.0152 346.506 73.8409V76.9943H310.739V70.0625H336.648C336.629 68.0928 336.203 66.3409 335.369 64.8068C334.536 63.2538 333.371 62.0322 331.875 61.142C330.398 60.2519 328.674 59.8068 326.705 59.8068C324.602 59.8068 322.756 60.3182 321.165 61.3409C319.574 62.3447 318.333 63.6705 317.443 65.3182C316.572 66.947 316.127 68.7367 316.108 70.6875V76.7386C316.108 79.2765 316.572 81.4545 317.5 83.2727C318.428 85.072 319.725 86.4545 321.392 87.4205C323.059 88.3674 325.009 88.8409 327.244 88.8409C328.741 88.8409 330.095 88.6326 331.307 88.2159C332.519 87.7803 333.57 87.1458 334.46 86.3125C335.35 85.4792 336.023 84.447 336.477 83.2159L346.08 84.2955C345.473 86.8333 344.318 89.0492 342.614 90.9432C340.928 92.8182 338.769 94.2765 336.136 95.3182C333.504 96.3409 330.492 96.8523 327.102 96.8523ZM389.695 63.8977L380.32 64.9205C380.054 63.9735 379.59 63.0833 378.928 62.25C378.284 61.4167 377.412 60.7443 376.314 60.233C375.215 59.7216 373.871 59.4659 372.28 59.4659C370.14 59.4659 368.34 59.9299 366.882 60.858C365.443 61.786 364.732 62.9886 364.751 64.4659C364.732 65.7348 365.196 66.767 366.143 67.5625C367.109 68.358 368.7 69.0114 370.916 69.5227L378.359 71.1136C382.488 72.0038 385.556 73.4148 387.564 75.3466C389.59 77.2784 390.613 79.8068 390.632 82.9318C390.613 85.678 389.808 88.1023 388.217 90.2045C386.645 92.2879 384.458 93.9167 381.655 95.0909C378.852 96.2652 375.632 96.8523 371.996 96.8523C366.655 96.8523 362.356 95.7348 359.098 93.5C355.84 91.2462 353.899 88.1117 353.274 84.0966L363.303 83.1307C363.757 85.1004 364.723 86.5871 366.2 87.5909C367.678 88.5947 369.6 89.0966 371.967 89.0966C374.411 89.0966 376.371 88.5947 377.848 87.5909C379.344 86.5871 380.092 85.3466 380.092 83.8693C380.092 82.6193 379.609 81.5871 378.643 80.7727C377.696 79.9583 376.219 79.3333 374.212 78.8977L366.768 77.3352C362.583 76.464 359.486 74.9962 357.479 72.9318C355.471 70.8485 354.477 68.2159 354.496 65.0341C354.477 62.3447 355.206 60.0152 356.683 58.0455C358.179 56.0568 360.253 54.5227 362.905 53.4432C365.575 52.3447 368.653 51.7955 372.138 51.7955C377.251 51.7955 381.276 52.8845 384.212 55.0625C387.166 57.2405 388.994 60.1856 389.695 63.8977ZM409.396 70.4318V96H399.112V37.8182H409.169V59.7784H409.68C410.703 57.3163 412.285 55.375 414.425 53.9545C416.584 52.5152 419.33 51.7955 422.663 51.7955C425.694 51.7955 428.336 52.4299 430.589 53.6989C432.843 54.9678 434.586 56.8239 435.817 59.267C437.067 61.7102 437.692 64.6932 437.692 68.2159V96H427.408V69.8068C427.408 66.8712 426.65 64.589 425.135 62.9602C423.639 61.3125 421.536 60.4886 418.828 60.4886C417.01 60.4886 415.381 60.8864 413.942 61.6818C412.521 62.4583 411.404 63.5852 410.589 65.0625C409.794 66.5398 409.396 68.3295 409.396 70.4318Z" fill="white"/>
</svg>
